<svg width="65" height="65" viewBox="0 0 65 65" fill="none" xmlns="http://www.w3.org/2000/svg">
<path d="M32.8513 64.8309C50.4878 64.8309 64.8326 50.4861 64.8326 32.8525C64.8326 15.216 50.4878 0.871155 32.8513 0.871155C15.2148 0.871155 0.870041 15.216 0.870041 32.8525C0.872894 50.4861 15.2177 64.8309 32.8513 64.8309ZM32.8513 1.4502C50.1655 1.4502 64.2536 15.5383 64.2536 32.8525C64.2536 50.1666 50.1684 64.2519 32.8542 64.2519C15.54 64.2519 1.45194 50.1666 1.45194 32.8525C1.45194 15.5383 15.5372 1.4502 32.8513 1.4502Z" fill="#303030"/>
<path d="M19.6651 44.4473L34.8604 45.7964C34.8735 44.5709 34.9577 40.3237 35.5652 38.3907C36.2568 36.1843 42.5343 36.9864 44.1306 37.2284C45.0247 32.7313 46.5422 29.8832 46.6079 29.7622C46.6868 29.615 46.8709 29.5597 47.0182 29.6386C47.1654 29.7175 47.2207 29.9016 47.1418 30.0489C47.126 30.0778 45.5376 33.0653 44.6697 37.6281C44.6382 37.7885 44.483 37.8963 44.3226 37.87C41.3956 37.3861 36.5882 37.1468 36.1438 38.5696C35.4731 40.705 35.4653 46.0725 35.4653 46.1251C35.4653 46.2093 35.4284 46.2908 35.368 46.3487C35.3127 46.3986 35.2391 46.4276 35.1628 46.4276C35.1549 46.4276 35.1444 46.4276 35.1365 46.4276L19.6152 45.0495C19.4495 45.0337 19.3259 44.8865 19.3417 44.7208C19.3496 44.5551 19.4995 44.4341 19.6651 44.4473Z" fill="#303030"/>
<path d="M16.7382 37.0022C16.9644 36.6156 17.3326 36.3763 17.8349 36.2895C19.4154 36.016 28.8224 37.0416 30.5975 37.2389C30.7106 36.6419 30.9315 35.1166 30.5449 33.7622C30.1425 32.3526 29.3036 29.4203 31.6968 28.6761C32.8171 28.3263 34.0689 28.4894 35.5153 28.6761C36.6882 28.8286 38.0189 28.9996 39.5101 28.9233C40.2859 28.8839 40.9328 28.8549 41.5193 28.8286C43.4285 28.7445 44.6935 28.6892 47.6231 28.3447C48.2149 28.1659 48.8565 28.2895 49.3404 28.6814C49.8348 29.0811 50.0952 29.6938 50.0347 30.3276L48.1491 50.5275C48.1386 50.6564 48.0465 50.7616 47.9229 50.7931L47.8493 50.8115V51.3375C47.8493 51.448 47.7757 51.5453 47.6678 51.5742L46.1662 51.966C46.011 52.0055 45.8611 51.8898 45.8611 51.7293V51.3112L39.326 52.9549V53.4992C39.326 53.6097 39.255 53.707 39.1471 53.7412L37.0774 54.3802C37.038 54.3934 36.9959 54.396 36.9565 54.3881L35.3917 54.0962C35.2734 54.0752 35.1866 53.97 35.1866 53.849V53.3257L19.2813 51.5689V51.8529C19.2813 51.9765 19.1735 52.0739 19.0498 52.0607L17.706 51.9029C17.6008 51.8898 17.5219 51.8004 17.5219 51.6952V51.3585C17.4088 51.3138 17.3273 51.2086 17.3273 51.0798V40.3894L16.7145 39.2244C16.7067 39.2113 16.7014 39.1981 16.6961 39.185C16.6725 39.1324 16.2359 37.8622 16.7382 37.0022ZM17.2563 38.9667L17.8927 40.1791C17.9164 40.2238 17.9269 40.2711 17.9269 40.3211V50.8168L36.7172 52.8917L37.059 40.5078C37.0643 40.3395 37.2037 40.2054 37.3694 40.2132C37.5377 40.2185 37.6692 40.3579 37.6639 40.5236L37.3247 52.8365L47.5653 50.2619L49.4325 30.275C49.4719 29.8464 49.2957 29.4282 48.9591 29.1574C48.6225 28.8865 48.1938 28.805 47.7757 28.9365C47.7573 28.9417 47.7389 28.947 47.7178 28.9496C44.7461 29.2994 43.4706 29.3546 41.5429 29.4414C40.9591 29.4677 40.3122 29.4966 39.539 29.5361C37.9926 29.615 36.633 29.4414 35.4338 29.2862C34.0558 29.1074 32.8671 28.9549 31.873 29.2652C30.2661 29.7649 30.5633 31.6478 31.1235 33.6071C31.6573 35.4795 31.1471 37.5676 31.1261 37.6544C31.0893 37.8017 30.9525 37.899 30.7974 37.8806C26.9157 37.4414 19.2339 36.6682 17.9322 36.8944C17.6113 36.9496 17.3904 37.089 17.2563 37.3151C16.967 37.8069 17.1537 38.6537 17.2563 38.9667Z" fill="#303030"/>
<path d="M21.4955 35.7504C21.6638 35.7504 21.798 35.6136 21.798 35.448V22.6827C21.798 22.5144 21.6612 22.3802 21.4955 22.3802C21.3272 22.3802 21.1931 22.517 21.1931 22.6827V35.448C21.1931 35.6163 21.3299 35.7504 21.4955 35.7504Z" fill="#303030"/>
<path d="M15.9623 22.0331H27.0314C27.1287 22.0331 27.2207 21.9858 27.2786 21.9042C27.3364 21.8253 27.3496 21.7228 27.318 21.6281L23.773 11.5111C23.7309 11.3901 23.6152 11.3086 23.4863 11.3086H19.5074C19.3785 11.3086 19.2654 11.3901 19.2207 11.5111L15.6757 21.6281C15.6441 21.7202 15.6573 21.8227 15.7151 21.9042C15.773 21.9858 15.865 22.0331 15.9623 22.0331Z" fill="#303030"/>
<path d="M20.1254 24.6498C20.2937 24.6498 20.4279 24.5131 20.4279 24.3474V22.6827C20.4279 22.5144 20.2911 22.3802 20.1254 22.3802C19.9571 22.3802 19.823 22.517 19.823 22.6827V24.3474C19.823 24.5131 19.9571 24.6498 20.1254 24.6498Z" fill="#303030"/>
<path d="M23.9623 24.229C24.8144 24.229 25.5087 23.5347 25.5087 22.6827C25.5087 22.5144 25.3719 22.3802 25.2062 22.3802C25.0379 22.3802 24.9038 22.517 24.9038 22.6827C24.9038 23.2008 24.4804 23.6242 23.9623 23.6242C23.4442 23.6242 23.0208 23.2008 23.0208 22.6827C23.0208 22.5144 22.8841 22.3802 22.7184 22.3802C22.5501 22.3802 22.416 22.517 22.416 22.6827C22.416 23.5347 23.1102 24.229 23.9623 24.229Z" fill="#303030"/>
</svg>
