<svg width="269" height="230" viewBox="0 0 269 230" fill="none" xmlns="http://www.w3.org/2000/svg">
<path d="M124.085 0.0181746C75.9921 -0.715348 39.8297 20.9541 32.4822 28.9006C30.1444 32.1098 22.8894 40.8204 27.0473 55.4908C31.7884 72.2192 37.378 72.912 23 88.9578C6.87134 106.957 -15.1098 141.68 14.9483 185.233C45.0064 228.786 118.849 232.096 157.8 229.244C195.373 226.493 241.632 208.521 259.496 186.15C278.533 162.31 264.987 124.687 253.409 106.837C241.813 88.9578 268.013 52.7401 244.468 33.0267C220.922 13.3133 184.201 0.935078 124.085 0.0181746Z" fill="#F9F9F9"/>
<path d="M131.299 141.715C132.613 141.574 133.77 141.454 134.913 141.32C138.123 140.939 141.333 140.917 144.551 141.141C149.083 141.462 153.562 142.171 157.989 143.179C158.116 143.209 158.251 143.231 158.377 143.261C158.699 143.35 158.848 143.223 158.937 142.902C159.176 142.066 159.46 141.245 159.729 140.416C161.976 133.533 166.538 128.792 173.078 125.813C177.318 123.88 181.738 123.245 186.344 123.559C187.21 123.618 188.061 123.738 188.957 123.917C189.062 122.834 189.189 121.789 189.256 120.744C189.547 116.257 190.801 112.039 192.728 108C193.19 107.022 193.623 106.036 193.997 105.014C195.236 101.587 195.154 98.1749 193.818 94.8153C193.011 92.7921 191.6 91.1795 190.04 89.7013C187.494 87.2973 184.358 86.0207 181.088 85.0128C178.378 84.1766 175.586 83.7809 172.786 83.445C170.144 83.1314 167.501 82.8029 164.85 82.5565C162.775 82.3624 160.692 82.2355 158.616 82.1758C153.868 82.0339 149.12 82.0339 144.372 82.1832C141.124 82.2803 137.884 82.5117 134.748 83.43C132.359 84.1318 130.045 85.0352 128.171 86.7523C124.804 89.8207 123.139 93.6357 123.236 98.2123C123.311 101.736 124.214 105.088 125.289 108.411C125.998 110.62 126.849 112.778 127.342 115.055C127.686 116.653 127.999 118.258 128.081 119.893C128.096 120.154 128.096 120.423 128.074 120.684C128.044 121.043 127.85 121.274 127.477 121.311C127.111 121.349 126.835 121.147 126.767 120.729C126.67 120.102 126.648 119.467 126.551 118.84C126.133 116.093 125.401 113.428 124.475 110.815C123.4 107.776 122.475 104.7 121.967 101.512C121.243 96.9804 121.795 92.6801 124.386 88.7681C126.013 86.3044 128.156 84.4752 130.844 83.2359C133.86 81.8473 137.033 81.1604 140.318 80.8991C146.664 80.3915 153.025 80.4885 159.378 80.6826C165.291 80.8618 171.151 81.6233 176.997 82.4893C180.379 82.9895 183.619 84.0348 186.688 85.5354C189.793 87.0584 192.287 89.3056 194.168 92.1874C195.99 94.9796 196.602 98.1003 196.363 101.408C196.214 103.573 195.527 105.581 194.646 107.544C194.139 108.672 193.653 109.814 193.153 110.949C191.682 114.249 191.07 117.735 190.764 121.304C190.689 122.17 190.652 123.043 190.57 123.909C190.533 124.313 190.667 124.529 191.055 124.678C191.891 124.999 192.66 125.47 193.414 125.955C196.027 127.635 198.245 131.719 196.528 136.026C195.9 137.609 194.99 139.028 193.84 140.289C193.586 140.573 193.437 140.879 193.317 141.238C192.295 144.313 191.242 147.382 190.212 150.45C188.718 154.9 187.136 159.32 185.941 163.859C185.254 166.487 184.664 169.137 184.149 171.802C183.619 174.565 183.746 177.297 184.314 180.045C184.903 182.912 185.366 185.801 185.523 188.735C185.56 189.496 185.56 190.265 185.366 191.019C185.15 191.848 184.799 192.587 183.881 192.789C182.955 192.998 182.246 192.535 181.663 191.863C181.23 191.355 180.954 190.758 180.737 190.131C180.058 188.205 179.73 186.204 179.356 184.211C179.222 183.486 179.095 182.755 178.834 182.06C178.528 181.232 178.162 181.045 177.311 181.269C176.721 181.426 176.176 181.702 175.653 182.008C172.704 183.71 169.643 185.181 166.493 186.473C166.276 186.562 166.06 186.674 165.813 186.667C165.522 186.659 165.313 186.532 165.194 186.264C165.074 185.987 165.149 185.734 165.358 185.547C165.515 185.413 165.701 185.308 165.896 185.226C169.128 183.8 172.256 182.158 175.347 180.44C175.9 180.134 176.482 179.888 177.102 179.739C178.498 179.41 179.543 179.918 180.14 181.217C180.581 182.187 180.737 183.233 180.924 184.27C181.23 185.928 181.521 187.593 182.037 189.205C182.193 189.705 182.372 190.206 182.664 190.654C182.813 190.878 182.97 191.087 183.216 191.206C183.44 191.318 183.627 191.281 183.739 191.042C183.888 190.728 183.94 190.392 183.963 190.041C184.052 188.638 183.888 187.249 183.709 185.861C183.41 183.531 183.007 181.217 182.552 178.917C182.089 176.581 182.186 174.251 182.582 171.922C183.679 165.539 185.523 159.357 187.643 153.243C188.703 150.182 189.734 147.106 190.779 144.037C190.861 143.798 190.936 143.559 191.018 143.321C190.831 143.261 190.757 143.335 190.674 143.403C187.658 145.635 184.291 147.188 180.82 148.547C179.565 149.039 178.289 149.465 176.982 149.771C176.46 149.89 176.206 150.144 176.064 150.674C174.153 157.722 171.973 164.695 169.837 171.676C169.375 173.191 168.837 174.677 168.217 176.133C167.06 178.865 165.351 181.157 162.887 182.859C162.319 183.248 161.767 183.658 161.282 184.143C160.834 184.599 160.453 185.099 160.229 185.711C160.065 186.167 160.124 186.256 160.61 186.316C161.267 186.398 161.909 186.54 162.521 186.794C164.014 187.413 164.813 188.518 164.82 190.153C164.828 191.258 164.828 192.371 164.82 193.476C164.791 196.432 164.589 199.381 164.163 202.308C164.074 202.935 163.939 203.554 163.671 204.129C163.081 205.369 161.834 205.458 161.058 204.323C160.752 203.883 160.61 203.375 160.498 202.853C160.124 201.143 160.02 199.403 159.908 197.671C159.706 194.566 159.415 191.467 159.064 188.377C159.005 187.817 158.997 187.802 158.43 187.854C156.802 188.011 155.197 188.332 153.584 188.6C150.113 189.175 146.619 189.369 143.102 189.235C141.624 189.175 140.154 189.108 138.675 189.063C136.062 188.974 133.479 188.608 130.896 188.197C127.305 187.63 123.706 187.063 120.175 186.196C116.465 185.293 112.776 184.278 109.193 182.941C108.476 182.673 108.573 182.576 108.193 183.322C107.088 185.51 106.02 187.72 104.93 189.914C104.236 191.311 103.482 192.669 102.675 193.998C102.25 194.7 101.802 195.387 101.197 195.947C100.66 196.447 100.047 196.835 99.2709 196.499C98.4721 196.148 98.3003 195.447 98.3227 194.663C98.3451 193.729 98.5691 192.834 98.8677 191.96C99.8383 189.116 101.018 186.346 102.138 183.561C102.608 182.389 103.086 181.217 103.504 180.022C104.31 177.708 104.333 175.379 103.773 173.012C103.168 170.496 102.302 168.062 101.555 165.591C100.607 162.433 99.8084 159.238 99.353 155.968C99.1589 154.557 99.032 153.138 98.9872 151.712C98.92 149.651 98.4944 147.703 97.5836 145.836C96.7773 144.179 95.9785 142.514 95.5529 140.7C95.1572 138.99 95.0527 137.273 95.2767 135.519C95.7769 131.502 98.9275 129.262 102.205 128.926C102.698 128.874 103.108 128.732 103.504 128.449C107.603 125.567 112.127 123.715 117.084 122.946C119.227 122.61 121.385 122.476 123.55 122.722C127.424 123.17 130.112 125.253 131.747 128.747C132.904 131.204 133.166 133.802 132.912 136.474C132.71 138.251 132.255 139.968 131.299 141.715ZM176.788 148.166C177.057 148.203 177.229 148.136 177.408 148.091C178.737 147.748 180.013 147.255 181.282 146.732C185.202 145.12 188.965 143.246 191.973 140.133C193.25 138.804 194.318 137.348 195.034 135.653C196.363 132.495 195.273 128.986 192.407 127.105C191.003 126.179 189.48 125.5 187.823 125.246C185.202 124.85 182.567 124.917 179.939 125.291C177.079 125.694 174.436 126.717 171.913 128.075C167.448 130.472 164.059 133.891 162.043 138.602C160.856 141.379 160.035 144.261 159.393 147.203C158.4 151.764 157.422 156.326 156.085 160.798C155.526 162.672 154.846 164.501 153.958 166.24C151.949 170.16 148.829 172.668 144.491 173.587C142.834 173.938 141.146 174.057 139.459 174.08C134.405 174.139 129.403 173.676 124.446 172.691C121.9 172.183 119.436 171.414 117.151 170.175C114.188 168.562 111.97 166.285 111.015 162.97C110.432 160.97 110.074 158.909 109.977 156.819C109.82 153.369 109.604 149.92 109.641 146.456C109.641 146.284 109.708 146.09 109.521 145.911C109.305 145.911 109.171 146.09 108.999 146.195C108.439 146.546 107.834 146.807 107.17 146.912C105.482 147.165 103.967 146.695 102.63 145.71C97.8673 142.216 97.4343 135.437 100.271 131.398C100.368 131.263 100.548 131.159 100.473 130.868C98.7632 131.607 97.5388 132.749 97.0237 134.541C96.5011 136.355 96.5757 138.192 96.9565 140.021C97.3223 141.797 98.0913 143.418 98.8901 145.023C99.9577 147.173 100.443 149.435 100.503 151.809C100.54 153.257 100.689 154.706 100.906 156.139C101.384 159.297 102.168 162.388 103.101 165.442C103.87 167.965 104.781 170.444 105.318 173.027C105.617 174.453 105.781 175.886 105.624 177.35C105.438 179.104 104.87 180.739 104.236 182.359C103.086 185.278 101.914 188.182 100.757 191.102C100.413 191.96 100.122 192.834 99.9503 193.744C99.8831 194.11 99.786 194.484 99.9279 194.879C100.286 194.737 100.428 194.469 100.607 194.245C101.197 193.498 101.66 192.662 102.13 191.841C103.556 189.34 104.751 186.727 106.02 184.143C106.401 183.36 106.804 182.591 107.222 181.829C107.647 181.06 108.006 180.956 108.857 181.269C109.402 181.471 109.947 181.672 110.492 181.851C113.426 182.814 116.382 183.681 119.384 184.382C126.76 186.099 134.203 187.436 141.811 187.637C144.849 187.72 147.881 187.772 150.897 187.384C153.383 187.063 155.847 186.644 158.325 186.286C158.616 186.241 158.721 186.107 158.773 185.838C158.997 184.591 159.699 183.621 160.595 182.762C161.155 182.232 161.767 181.777 162.387 181.329C164.238 179.97 165.589 178.208 166.553 176.14C167.292 174.557 167.874 172.922 168.382 171.257C170.226 165.21 172.122 159.17 173.824 153.078C174.071 152.19 174.324 151.309 174.578 150.406C174.16 150.271 173.802 150.383 173.443 150.428C171.995 150.615 170.539 150.704 169.113 150.338C165.589 149.428 163.693 147.427 163.282 144.254C162.939 141.574 163.238 138.916 164.432 136.452C165.724 133.772 167.792 132.107 170.883 131.92C175.116 131.666 177.214 134.227 177.863 137.012C178.042 137.781 178.11 138.572 178.124 139.364C178.177 141.947 177.639 144.448 177.042 146.934C176.93 147.352 176.766 147.718 176.788 148.166ZM158.407 144.709C158.094 144.634 157.84 144.575 157.586 144.523C154.973 144.015 152.345 143.604 149.717 143.201C143.595 142.26 137.481 142.305 131.366 143.261C131 143.321 130.747 143.455 130.523 143.761C128.791 146.075 126.76 148.099 124.416 149.801C122.504 151.182 120.496 152.377 118.249 153.123C117.592 153.34 116.92 153.452 116.226 153.407C114.807 153.31 114.053 152.235 114.456 150.868C114.591 150.406 114.83 149.995 115.121 149.614C115.718 148.83 116.435 148.181 117.226 147.598C120.63 145.105 124.446 143.477 128.499 142.395C129.246 142.193 129.664 141.82 130.008 141.178C131.202 138.968 131.463 136.579 131.419 134.123C131.389 132.443 131.023 130.83 130.299 129.307C129 126.582 126.954 124.805 123.915 124.313C122.37 124.059 120.817 124.081 119.264 124.223C114.367 124.656 109.842 126.172 105.691 128.815C105.55 128.904 105.37 128.956 105.318 129.143C105.37 129.188 105.385 129.218 105.408 129.225C105.579 129.292 105.751 129.352 105.923 129.419C107.782 130.128 109.29 131.301 110.343 132.973C112.254 136.004 112.747 139.259 111.515 142.656C111.149 143.664 111.089 144.642 111.104 145.672C111.134 148.838 111.283 151.996 111.395 155.161C111.47 157.274 111.746 159.357 112.157 161.433C112.791 164.65 114.628 166.972 117.398 168.607C118.951 169.518 120.608 170.197 122.348 170.66C125.543 171.504 128.798 172.004 132.083 172.295C135.555 172.609 139.034 172.743 142.505 172.392C147.246 171.914 150.695 169.578 152.786 165.27C153.51 163.769 154.115 162.224 154.592 160.634C156.145 155.423 157.213 150.092 158.407 144.709ZM176.624 139.856C176.654 139.117 176.564 138.378 176.43 137.654C176.116 135.914 175.265 134.518 173.593 133.832C171.868 133.122 168.837 133.167 167.045 135.243C166.403 135.989 165.851 136.78 165.507 137.706C164.813 139.535 164.574 141.447 164.671 143.373C164.82 146.352 166.418 148.323 169.875 148.995C171.487 149.308 173.07 149.002 174.66 148.778C174.981 148.733 175.086 148.517 175.153 148.24C175.31 147.628 175.474 147.016 175.616 146.404C176.139 144.246 176.564 142.081 176.624 139.856ZM110.634 139.199C110.626 137.423 110.208 135.862 109.409 134.399C108.245 132.286 106.498 130.98 104.116 130.509C103.564 130.397 103.175 130.532 102.765 130.912C100.286 133.219 99.6442 136.094 100.256 139.296C100.66 141.409 101.742 143.164 103.489 144.478C104.251 145.045 105.117 145.381 106.042 145.456C107.647 145.59 108.752 144.754 109.514 143.418C110.261 142.074 110.574 140.61 110.634 139.199ZM128.231 144.112C128.134 144.037 128.029 144.06 127.932 144.089C124.319 145.172 120.922 146.703 117.883 148.965C117.331 149.375 116.838 149.846 116.405 150.383C116.203 150.63 116.032 150.898 115.92 151.197C115.763 151.645 115.882 151.846 116.353 151.906C116.562 151.929 116.771 151.906 116.98 151.876C117.667 151.787 118.309 151.533 118.936 151.257C122.489 149.674 125.491 147.359 128.051 144.44C128.126 144.343 128.223 144.254 128.231 144.112ZM162.297 203.248C162.581 202.681 162.611 202.106 162.693 201.539C163.066 198.978 163.171 196.402 163.275 193.819C163.327 192.58 163.335 191.34 163.342 190.109C163.342 189.69 163.335 189.257 162.976 188.944C162.439 188.466 161.834 188.1 161.117 187.958C160.58 187.854 160.528 187.891 160.595 188.451C160.968 191.803 161.252 195.163 161.483 198.522C161.565 199.754 161.662 200.994 161.909 202.211C161.976 202.554 161.998 202.935 162.297 203.248Z" fill="#303030"/>
<path d="M66.1677 135.937C66.0034 135.25 65.5405 134.802 64.9657 134.459C64.4655 134.153 63.8981 134.026 63.3232 133.914C62.0018 133.66 60.6579 133.578 59.3141 133.473C56.3726 133.242 53.4236 133.048 50.4821 132.809C49.2726 132.712 48.0706 132.547 46.906 132.182C46.0101 131.905 45.1963 131.487 44.4945 130.868C43.3448 129.86 42.9864 128.635 43.4568 127.157C44.0018 125.425 45.144 124.201 46.6447 123.275C48.8695 121.894 51.3108 121.102 53.8715 120.602C57.7015 119.856 61.5688 119.736 65.451 119.751C71.3639 119.773 77.1797 120.505 82.891 122.036C84.2946 122.409 85.6758 122.842 86.9599 123.544C87.5646 123.872 88.1469 124.238 88.6621 124.693C90.7749 126.545 91.081 129.501 89.3564 131.734C88.5352 132.794 87.475 133.57 86.3178 134.227C84.6007 135.198 82.7193 135.728 80.8081 136.116C76.9035 136.915 72.9466 137.348 68.9599 137.527C68.8778 137.527 68.8031 137.535 68.721 137.535C68.3925 137.512 68.2432 137.617 68.3029 137.99C68.3701 138.43 68.3701 138.886 68.4149 139.326C68.6314 141.462 68.4447 143.597 68.3104 145.724C68.161 147.987 67.9893 150.249 67.8699 152.511C67.6011 157.7 67.631 162.896 67.5862 168.092C67.5862 168.331 67.5936 168.57 67.5563 168.801C67.4817 169.212 67.1457 169.481 66.7799 169.451C66.429 169.428 66.1826 169.182 66.1154 168.779C66.093 168.652 66.093 168.518 66.093 168.383C66.1527 163.269 66.0706 158.148 66.3319 153.034C66.4738 150.294 66.7052 147.561 66.8695 144.821C66.9964 142.581 67.0785 140.342 66.8023 138.102C66.7575 137.766 66.7276 137.505 66.2722 137.49C63.9802 137.445 61.6882 137.415 59.4111 137.841C57.052 138.289 55.1706 139.52 53.6401 141.327C51.908 143.38 50.6463 145.725 49.4817 148.121C47.4958 152.197 45.8831 156.445 44.0018 160.566C43.1432 162.463 42.3294 164.381 41.4933 166.285C41.2992 166.733 41.0005 166.897 40.6422 166.778C40.3062 166.666 40.1196 166.293 40.2241 165.86C40.2987 165.554 40.4331 165.262 40.5451 164.971C42.1353 160.895 44.0092 156.938 45.689 152.892C46.794 150.234 47.9885 147.621 49.3473 145.09C50.161 143.574 51.0793 142.133 52.1395 140.782C54.3941 137.885 57.3581 136.355 61.0088 136.079C62.5094 135.967 64.0101 135.892 65.5107 135.952C65.7197 136.012 65.9288 136.049 66.1677 135.937ZM64.9657 121.267C59.9636 121.259 57.3133 121.476 53.6028 122.207C51.4153 122.64 49.3398 123.387 47.4286 124.559C46.3535 125.223 45.4651 126.067 45.0022 127.284C44.5169 128.546 44.7558 129.3 45.8831 130.061C46.7566 130.651 47.7496 130.912 48.7649 131.077C51.0345 131.442 53.3265 131.51 55.6185 131.704C58.0598 131.905 60.5161 132.002 62.9499 132.323C65.1523 132.615 66.9665 133.421 67.7653 135.698C67.8624 135.967 68.0565 136.049 68.3178 136.034C68.5791 136.019 68.8479 136.019 69.1092 136.012C71.7222 135.944 74.3128 135.623 76.9035 135.28C79.076 134.989 81.2262 134.593 83.3091 133.906C85.0113 133.346 86.5642 132.532 87.8184 131.226C88.8935 130.099 89.2519 128.785 88.7218 127.291C88.3858 126.351 87.6691 125.731 86.8479 125.223C85.6534 124.477 84.3394 124.007 82.9881 123.633C76.9781 121.976 70.8487 121.222 64.9657 121.267Z" fill="#303030"/>
<path d="M90.2747 165.673C90.2897 166.128 90.0956 166.427 89.7671 166.524C89.4236 166.621 89.1026 166.487 88.9085 166.128C88.8264 165.972 88.7741 165.785 88.7293 165.606C87.0047 158.999 85.0263 152.466 83.3764 145.836C82.809 143.559 82.264 141.275 81.719 138.998C81.6966 138.893 81.6667 138.789 81.6592 138.684C81.6294 138.259 81.8085 137.96 82.1445 137.893C82.5103 137.818 82.7642 137.997 82.906 138.311C83.0031 138.527 83.0553 138.759 83.1151 138.99C84.6082 144.455 85.9446 149.965 87.5049 155.415C88.4158 158.61 89.2594 161.821 90.1329 165.023C90.1851 165.262 90.2299 165.494 90.2747 165.673Z" fill="#303030"/>
<path d="M162.387 37.1497C162.379 37.2393 162.364 37.3214 162.379 37.3886C162.775 39.255 162.835 41.1513 162.939 43.0476C163.073 45.5188 162.82 47.9452 162.424 50.3641C162.103 52.3201 161.334 54.1045 159.938 55.5677C159.811 55.7021 159.699 55.8589 159.55 55.9634C158.28 56.8519 156.944 57.5163 155.354 57.6358C152.905 57.8149 150.598 57.3446 148.336 56.4188C145.566 55.2766 143.005 53.776 140.572 52.0439C139.758 51.469 139.049 50.7523 138.272 50.0804C137.817 50.2969 137.436 50.6254 137.055 50.9539C136.017 51.8498 134.883 52.6188 133.785 53.4325C132.516 54.3732 131.269 55.3363 129.933 56.2023C128.962 56.8295 127.969 57.4342 127.051 58.1434C126.842 58.3077 126.611 58.4271 126.327 58.4271C125.752 58.4271 125.468 57.9792 125.707 57.4566C125.827 57.1953 126.043 57.0609 126.275 56.9265C127.805 55.9933 129.246 54.9257 130.642 53.8133C131.381 53.2235 132.195 52.7308 132.956 52.1634C134.241 51.1928 135.45 50.1327 136.794 49.2442C136.898 49.1696 136.995 49.0725 137.085 48.9829C137.212 48.856 137.242 48.744 137.1 48.5798C136.503 47.8631 136.152 47.012 135.816 46.1459C135.286 44.7872 135.368 43.4508 135.876 42.1368C136.286 41.0692 136.921 40.136 137.727 39.3147C138.989 38.0157 140.482 37.0302 142.065 36.1866C143.364 35.4923 144.723 34.9174 146.066 34.3127C147.395 33.7154 148.791 33.3421 150.158 32.8792C150.897 32.6254 151.703 32.5507 152.502 32.7449C153.614 33.0211 154.092 33.8423 153.779 34.9473C153.472 36.0223 152.741 36.8361 152.069 37.6723C151.584 38.2919 151.009 38.8444 150.449 39.3894C148.933 40.8602 147.418 42.316 145.82 43.6972C144.028 45.2426 142.222 46.7805 140.415 48.3185C140.139 48.5574 139.825 48.759 139.511 48.9979C140.646 50.267 141.983 51.2376 143.401 52.0887C144.394 52.686 145.38 53.2907 146.417 53.8282C148.067 54.6719 149.769 55.3662 151.561 55.844C153.196 56.277 154.839 56.3293 156.481 55.8738C158.154 55.411 159.244 54.2986 159.998 52.7979C160.669 51.4616 160.983 50.0132 161.147 48.5424C161.446 45.8921 161.565 43.2417 161.229 40.5765C161.102 39.5835 161.08 38.5756 160.864 37.5976C160.767 37.1347 160.64 36.6793 160.543 36.2164C160.498 35.9775 160.341 35.8581 160.154 35.7461C158.997 35.0593 157.915 34.2679 156.825 33.4765C156.011 32.8792 155.272 32.1924 154.645 31.4234C153.286 29.7361 153.413 27.8174 155.085 26.2795C156.645 24.8386 158.467 24.2488 160.55 24.8909C162.222 25.406 163.417 26.4512 163.798 28.2281C163.984 29.1165 163.857 30.0049 163.604 30.8859C163.275 32.0431 162.685 33.0659 162.103 34.0962C161.707 34.7979 161.7 34.7979 162.409 35.2384C164.313 36.418 166.321 37.4259 168.292 38.4786C170.061 39.4193 171.853 40.3152 173.6 41.2932C176.915 43.1372 180.207 45.0335 183.515 46.885C186.688 48.6619 189.883 50.394 193.056 52.1783C194.639 53.0742 196.192 54.0223 197.737 54.9705C201.709 57.4193 205.755 59.7486 209.921 61.8539C212.885 63.3546 215.939 64.6685 219.127 65.6242C220.62 66.0721 220.582 66.2065 220.672 64.5118C220.754 62.9514 221.165 61.4508 222.173 60.2563C223.546 58.6213 225.838 58.4271 227.302 60.4205C229.504 63.4143 227.264 66.6619 224.89 67.3562C224.091 67.5877 223.307 67.7444 222.486 67.737C222.105 67.7295 221.971 67.8714 221.986 68.2446C222.038 69.6407 222.068 71.0368 222.105 72.4329C222.113 72.6196 222.143 72.7988 222.143 72.9854C222.165 75.9344 222.165 78.8908 222.217 81.8398C222.285 85.5055 222.292 89.1712 222.337 92.8295C222.352 94.121 222.344 95.4126 222.374 96.6967C222.419 98.8021 222.382 100.915 222.509 103.02C222.606 104.708 222.538 106.395 222.658 108.075C222.785 109.762 222.703 111.449 222.815 113.129C222.919 114.637 222.822 116.13 222.815 117.631C222.807 119.766 222.68 121.901 222.673 124.029C222.673 125.925 222.509 127.822 222.523 129.71C222.546 131.637 222.367 133.555 222.367 135.474C222.367 136.9 222.21 138.311 222.18 139.729C222.105 142.552 221.814 145.359 221.59 148.166C221.426 150.264 221.045 152.347 220.605 154.415C220.351 155.609 220.09 155.452 221.426 155.818C223.673 156.43 225.838 157.252 227.809 158.513C228.653 159.051 229.459 159.648 230.251 160.26C231.46 161.201 232.64 162.172 233.722 163.254C234.581 164.105 235.394 165.024 235.85 166.173C236.186 167.024 235.969 167.368 235.081 167.599C233.73 167.95 232.348 168.137 230.967 168.338C227.279 168.868 223.569 169.033 219.866 169.301C219.291 169.346 218.708 169.354 218.126 169.369C215.834 169.436 213.542 169.54 211.25 169.593C209.481 169.63 207.726 169.488 205.964 169.451C203.127 169.391 200.365 168.809 197.573 168.45C197.155 168.398 196.744 168.286 196.363 168.092C196.02 167.92 195.886 167.599 195.975 167.233C196.065 166.883 196.304 166.696 196.662 166.688C196.871 166.688 197.088 166.711 197.289 166.756C200.611 167.54 204.001 167.853 207.398 168.002C211.086 168.159 214.774 168.01 218.462 167.778C218.992 167.749 219.515 167.719 220.045 167.711C222.18 167.696 224.308 167.48 226.428 167.278C228.683 167.062 230.952 166.965 233.185 166.532C233.483 166.472 233.789 166.405 234.155 166.323C233.819 165.71 233.461 165.195 233.02 164.747C230.698 162.336 228.093 160.305 225.099 158.79C223.636 158.051 222.09 157.528 220.508 157.11C220.037 156.99 219.925 157.17 219.784 157.535C219.239 158.939 218.604 160.29 217.693 161.507C216.648 162.888 215.409 164.038 213.968 164.994C212.691 165.837 211.258 166.173 209.809 166.36C208.324 166.554 206.883 166.143 205.681 165.285C204.509 164.441 203.881 163.239 204.232 161.709C204.419 160.902 204.718 160.148 205.225 159.491C206.024 158.461 206.95 157.61 208.107 156.953C210.757 155.437 213.617 154.922 216.618 154.997C217.171 155.012 217.723 155.102 218.268 155.154C218.88 155.214 218.888 155.214 219.044 154.586C219.373 153.28 219.574 151.958 219.724 150.615C219.91 148.86 220.231 147.113 220.314 145.351C220.433 142.828 220.739 140.312 220.747 137.781C220.747 136.467 220.948 135.145 220.926 133.832C220.896 131.622 221.15 129.412 221.06 127.202C221.038 126.545 221.127 125.888 221.15 125.223C221.217 122.693 221.299 120.162 221.329 117.631C221.359 115.705 221.404 113.778 221.292 111.86C221.202 110.172 221.277 108.485 221.142 106.805C221.015 105.17 221.083 103.535 221 101.908C220.821 98.4288 220.881 94.9497 220.821 91.4782C220.791 89.7386 220.874 87.9991 220.806 86.2596C220.672 82.7805 220.747 79.3015 220.65 75.8224C220.575 73.2392 220.657 70.6561 220.56 68.0804C220.545 67.61 220.396 67.4458 219.963 67.3562C216.611 66.647 213.512 65.2583 210.429 63.81C207.323 62.3467 204.344 60.6594 201.388 58.9273C198.521 57.2475 195.699 55.5006 192.825 53.8357C190.406 52.4396 187.942 51.1181 185.501 49.7594C183.522 48.6544 181.544 47.5495 179.573 46.4296C175.795 44.2795 172.017 42.1219 168.15 40.1285C166.366 39.2102 164.611 38.2471 162.842 37.3214C162.693 37.2393 162.573 37.1273 162.387 37.1497ZM138.496 47.8257C138.645 47.7212 138.742 47.6764 138.817 47.6092C140.146 46.452 141.52 45.3471 142.871 44.2048C144.379 42.9282 145.828 41.5769 147.306 40.2778C148.478 39.2476 149.583 38.1576 150.606 36.9929C151.18 36.3434 151.733 35.664 152.129 34.8875C152.39 34.3799 152.285 34.2007 151.725 34.2305C151.039 34.2679 150.359 34.3873 149.71 34.6038C147.686 35.2832 145.73 36.1045 143.797 37.0228C141.818 37.956 140.042 39.158 138.526 40.7258C137.72 41.5694 137.13 42.5474 137.063 43.7942C136.995 45.3172 137.473 46.6237 138.496 47.8257ZM218.365 156.789C216.267 156.423 214.304 156.416 212.318 156.923C210.825 157.304 209.376 157.782 208.144 158.715C207.092 159.514 206.144 160.432 205.793 161.798C205.516 162.881 205.949 163.799 206.965 164.247C209.705 165.471 212.064 164.538 214.244 162.896C215.252 162.134 216.051 161.134 216.76 160.074C217.439 159.058 217.895 157.953 218.365 156.789ZM162.394 29.3703C162.312 28.019 161.745 26.8992 160.438 26.3989C159.341 25.9809 158.325 26.175 157.295 26.5632C156.414 26.8992 155.832 27.5487 155.428 28.3923C155.182 28.9149 155.197 29.4226 155.503 29.9004C155.802 30.3633 156.108 30.8187 156.511 31.2069C157.579 32.2297 158.788 33.0659 160.05 33.8349C160.386 34.0364 160.58 33.9767 160.744 33.6632C161.237 32.7374 161.812 31.849 162.095 30.8187C162.237 30.3409 162.372 29.8556 162.394 29.3703ZM222.904 66.1094C223.083 66.087 223.375 66.0572 223.658 66.0273C224.898 65.9004 225.749 65.2061 226.324 64.1534C227.055 62.8245 226.488 61.1895 225.151 60.6146C224.808 60.4653 224.502 60.4728 224.158 60.6071C223.487 60.8759 223.158 61.4433 222.882 62.048C222.397 63.1157 222.195 64.2579 222.113 65.4226C222.068 66.0945 222.105 66.1244 222.904 66.1094Z" fill="#303030"/>
<path d="M138.063 66.7664C138.041 66.3558 138.16 66.1468 138.257 65.9377C139.706 62.8991 141.184 59.8755 142.819 56.934C142.893 56.7996 142.961 56.6503 143.05 56.5234C143.259 56.2247 143.543 56.1277 143.879 56.277C144.185 56.4114 144.394 56.8145 144.275 57.1281C144.073 57.6432 143.834 58.1434 143.58 58.6287C142.296 61.0775 141.154 63.586 139.959 66.0796C139.788 66.4305 139.653 66.8187 139.355 67.0874C139.116 67.3114 138.832 67.4383 138.489 67.304C138.16 67.177 138.078 66.9083 138.063 66.7664Z" fill="#303030"/>
<path d="M150.426 68.9315C150.65 65.8855 150.874 62.9664 151.479 60.0995C151.509 59.9726 151.516 59.8382 151.561 59.7113C151.711 59.2708 152.017 59.0618 152.375 59.1364C152.741 59.2186 152.92 59.5247 152.86 59.995C152.778 60.5923 152.629 61.1895 152.592 61.7943C152.442 64.1609 152.069 66.5052 151.964 68.8793C151.957 69.0361 151.964 69.2003 151.92 69.3496C151.808 69.7378 151.509 69.8872 151.136 69.8946C150.785 69.9021 150.494 69.6408 150.426 69.2675C150.404 69.1182 150.426 68.9614 150.426 68.9315Z" fill="#303030"/>
<path d="M102.063 106.813C101.205 105.648 100.219 104.625 99.047 103.797C95.7845 101.49 92.2606 99.7652 88.2888 99.0261C85.3772 98.4885 82.4804 98.3019 79.5912 99.1231C79.412 99.1754 79.2328 99.2276 79.0536 99.2351C78.7401 99.2426 78.4788 99.1007 78.3668 98.8021C78.2548 98.5034 78.3295 98.2272 78.5609 98.0032C78.7401 97.8315 78.9566 97.7494 79.188 97.6897C81.1665 97.1596 83.1673 96.9282 85.2204 97.0924C90.5659 97.5105 95.3738 99.3471 99.7339 102.438C101.302 103.55 102.563 104.954 103.728 106.469C103.81 106.574 103.885 106.686 103.945 106.805C104.31 107.53 104.042 108.134 103.25 108.291C102.556 108.425 101.847 108.515 101.137 108.597C98.1362 108.941 95.1349 108.903 92.1337 108.627C89.3564 108.373 86.6613 107.761 84.108 106.649C80.7484 105.185 77.9114 103.065 75.8583 99.9742C75.6866 99.7129 75.5223 99.5487 75.1714 99.5711C73.7156 99.6607 72.3046 99.9667 70.9085 100.385C70.5725 100.489 70.5725 100.736 70.5501 100.997C70.4157 102.333 70.2739 103.67 70.1171 105.006C70.0499 105.611 69.9529 106.208 69.8409 106.805C69.7737 107.171 69.8633 107.321 70.2664 107.35C71.8716 107.462 73.4543 107.739 75.0221 108.119C75.6642 108.276 76.2913 108.47 76.896 108.739C79.0312 109.702 80.1884 111.3 80.1436 113.689C80.1213 115.145 79.8823 116.578 79.6136 118.004C79.1656 120.386 78.7401 122.775 78.0234 125.097C77.7695 125.903 77.4858 126.694 77.0453 127.426C76.2913 128.658 75.2088 129.434 73.7529 129.457C70.3261 129.509 66.8919 129.546 63.4875 129.009C62.8604 128.912 62.2556 128.74 61.6658 128.486C60.4862 127.986 59.7621 127.112 59.4933 125.858C59.2395 124.641 59.12 123.409 58.9483 122.185C58.5078 119.027 58.0972 115.861 57.9031 112.674C57.8807 112.308 57.8583 111.934 57.8807 111.569C57.9106 111.091 58.1569 110.822 58.5302 110.829C58.896 110.829 59.1499 111.083 59.1872 111.569C59.2992 113.069 59.4634 114.562 59.6575 116.056C60.0607 119.116 60.434 122.177 60.8894 125.223C61.0536 126.328 61.6509 126.978 62.6887 127.277C63.5547 127.53 64.4356 127.68 65.3315 127.754C67.855 127.978 70.3933 127.934 72.9242 127.986C73.0288 127.986 73.1333 127.978 73.2378 127.986C74.5891 128.016 75.4775 127.359 76.0151 126.157C76.6422 124.753 77.008 123.267 77.329 121.767C77.8143 119.497 78.2996 117.228 78.5534 114.921C78.5982 114.525 78.6356 114.129 78.6356 113.741C78.6505 111.964 77.889 110.807 76.254 110.098C75.2536 109.665 74.1934 109.471 73.1333 109.247C72.0955 109.03 71.0429 108.956 69.9977 108.814C69.5721 108.754 69.4527 108.933 69.3705 109.299C69.266 109.814 69.1242 110.322 68.9674 110.829C68.7583 111.486 68.4224 112.084 67.9595 112.606C67.31 113.353 66.5111 113.816 65.5033 113.898C64.57 113.98 63.6517 113.905 62.7708 113.622C61.9495 113.353 61.2552 112.883 60.8446 112.084C60.2772 110.986 60.5086 109.807 61.4568 109.015C62.0317 108.537 62.6961 108.216 63.3979 107.985C64.8089 107.522 66.2424 107.194 67.7355 107.201C68.0715 107.201 68.2731 107.134 68.3328 106.753C68.6016 104.984 68.8479 103.207 68.9823 101.415C68.9898 101.311 68.9748 101.206 68.9599 101.079C68.6165 101.012 68.3402 101.191 68.0491 101.281C65.9587 101.938 63.8459 102.475 61.6434 102.647C59.5978 102.804 57.5895 102.587 55.5812 102.259C52.6248 101.766 49.7878 100.915 47.0926 99.5785C44.7708 98.4288 42.77 96.861 40.9707 95.0095C39.1117 93.0982 37.417 91.0377 35.894 88.8502C35.6103 88.4396 35.3266 88.0215 35.1698 87.5362C34.8861 86.6702 35.2743 86.0431 36.1851 85.9833C40.0076 85.7519 43.8301 85.6399 47.6451 86.058C50.4373 86.3641 53.1549 86.9016 55.7679 87.9916C59.9114 89.7237 63.2561 92.374 65.6302 96.204C65.6974 96.316 65.7795 96.4205 65.8392 96.54C66.0333 96.9282 66.3021 97.0476 66.7426 96.9356C67.3548 96.7863 67.9819 96.6743 68.609 96.5922C69.042 96.54 69.1764 96.3384 69.1615 95.9128C69.0943 94.3375 68.7583 92.8369 68.0043 91.4334C67.2055 89.9626 66.1528 88.6785 65.0926 87.4018C62.8006 84.632 60.755 81.698 58.896 78.6221C56.7907 75.1281 55.529 71.3803 55.0437 67.3338C54.7227 64.6835 54.4539 62.0406 54.439 59.3678C54.439 59.1065 54.4166 58.8378 54.5062 58.5839C54.7077 58.0165 55.2453 57.8 55.7753 58.0837C55.9097 58.1584 56.0366 58.2629 56.1561 58.3599C59.9412 61.5478 62.7857 65.4151 64.6223 70.0215C65.6974 72.7092 66.3469 75.4939 66.7724 78.3458C66.8172 78.6594 66.8322 78.973 67.0188 79.3388C67.2577 78.301 67.4668 77.3305 67.7057 76.3674C69.0122 71.1563 71.2071 66.3782 74.6862 62.2347C76.351 60.2563 78.3071 58.6287 80.5617 57.3595C80.6961 57.2849 80.838 57.2028 80.9798 57.1356C81.7189 56.8071 82.2863 57.0236 82.5551 57.7851C82.8089 58.4869 82.8761 59.226 82.9881 59.9502C83.6974 64.6984 83.0329 69.2525 81.0022 73.6051C80.0018 75.7552 78.6505 77.659 77.0006 79.3612C75.8658 80.5408 74.6488 81.6308 73.4394 82.7357C72.3344 83.7511 71.2146 84.7589 70.2814 85.9535C70.0872 86.1998 69.923 86.4761 69.7289 86.7299C69.5497 86.9763 69.5646 87.1853 69.7289 87.4466C70.4605 88.6038 71.1698 89.776 71.894 90.9481C71.9462 91.0302 71.9835 91.1422 72.1403 91.1646C72.3568 91.0825 72.424 90.8361 72.5435 90.642C74.6787 87.1629 77.4112 84.2214 80.5767 81.6606C83.8691 78.9954 87.6692 77.4425 91.7903 76.6287C94.351 76.121 96.9491 75.8523 99.5397 75.5387C101.324 75.3222 103.086 75.0161 104.848 74.6876C105.027 74.6503 105.214 74.598 105.393 74.598C106.162 74.598 106.535 75.2251 106.162 75.8971C106.02 76.1509 105.833 76.3749 105.662 76.6063C104.945 77.5843 104.303 78.6221 103.698 79.6673C99.9504 86.155 94.4555 90.5225 87.4676 93.1057C82.906 94.793 78.1951 95.9352 73.4767 97.0551C72.7077 97.2343 71.9313 97.3985 71.1623 97.5777C70.7218 97.6822 70.4456 98.272 70.6397 98.6752C70.7293 98.8693 70.9085 98.8021 71.0578 98.7722C71.5431 98.6528 72.0283 98.5184 72.5136 98.4139C73.4916 98.1974 74.4921 98.1152 75.4925 98.048C76.0748 98.0032 76.5003 98.2048 76.8064 98.7274C78.0756 100.93 79.9197 102.565 82.04 103.909C84.7874 105.656 87.8259 106.574 91.0138 107C94.5078 107.462 98.0093 107.5 101.503 107.029C101.697 106.992 101.869 107.022 102.063 106.813ZM103.818 76.4943C103.609 76.3898 103.4 76.4645 103.205 76.5018C101.802 76.7631 100.391 76.9199 98.9798 77.1065C96.5012 77.435 94.0001 77.6739 91.5514 78.204C87.9753 78.9804 84.6604 80.3541 81.7712 82.6387C78.5758 85.1621 75.8508 88.1111 73.738 91.6051C73.5215 91.9634 73.3125 92.3367 73.0736 92.6801C72.4838 93.5387 71.767 93.5312 71.2146 92.6577C71.0877 92.4562 70.9757 92.2471 70.8488 92.0456C70.02 90.7017 69.2137 89.3355 68.3402 88.014C67.8998 87.3496 67.8998 86.812 68.3253 86.1401C69.1764 84.8112 70.2291 83.6839 71.3639 82.6163C72.7077 81.3471 74.0964 80.1302 75.4029 78.8311C80.4124 73.8365 82.3311 67.7668 81.5845 60.7938C81.5099 60.1219 81.4875 59.435 81.2411 58.7855C80.935 58.7855 80.7334 58.9796 80.5169 59.114C78.8446 60.1517 77.3664 61.4135 76.0748 62.8991C72.7227 66.7664 70.6173 71.2608 69.2959 76.1658C68.6463 78.5623 68.2955 81.0186 67.8848 83.4599C67.84 83.7511 67.7803 84.0348 67.6459 84.2961C67.4891 84.6022 67.2353 84.7739 66.877 84.744C66.5559 84.7216 66.3394 84.535 66.2349 84.2363C66.1826 84.087 66.1453 83.9302 66.1154 83.7809C65.9587 82.8477 65.787 81.9145 65.6451 80.9738C65.2942 78.6519 64.9956 76.3226 64.3759 74.053C62.9649 68.9091 60.5236 64.3699 56.5219 60.7565C56.3801 60.6295 56.283 60.3832 55.9918 60.4802C55.9918 60.8461 55.9769 61.2119 55.9918 61.5777C56.1113 64.1086 56.4174 66.6246 56.8429 69.1181C57.2536 71.5296 58.0001 73.8216 59.1648 75.9792C60.3668 78.2115 61.6882 80.3691 63.1515 82.4371C64.6372 84.5275 66.317 86.4537 67.8699 88.4844C69.169 90.1791 70.1768 92.0157 70.4904 94.1658C70.5576 94.6063 70.58 95.0543 70.6322 95.5022C70.7069 96.1219 70.7144 96.1293 71.2967 96.0024C71.8865 95.8755 72.4763 95.7336 73.0661 95.5918C77.7845 94.4719 82.5028 93.3371 87.057 91.6424C92.3129 89.6789 96.7923 86.6403 100.242 82.1683C101.578 80.4288 102.623 78.4952 103.788 76.6436C103.833 76.6138 103.81 76.5541 103.818 76.4943ZM36.9093 87.4018C36.9541 87.7751 37.1258 87.9468 37.2602 88.1335C38.6563 90.1194 40.2092 91.9858 41.8741 93.7477C44.2706 96.2861 47.1001 98.1451 50.385 99.3322C52.6546 100.153 54.984 100.669 57.3656 100.975C59.5456 101.258 61.7256 101.251 63.8981 100.81C65.451 100.497 66.9591 100.034 68.4597 99.5487C69.1391 99.3322 69.1391 99.3322 69.154 98.6229C69.154 98.4288 69.2361 98.2048 69.0346 98.0331C68.4149 98.1376 67.7952 98.2422 67.1756 98.3616C65.6152 98.6453 65.3913 98.5482 64.5178 97.1969C64.4207 97.0402 64.3237 96.8834 64.2191 96.7341C63.3456 95.4425 62.405 94.2106 61.2478 93.1505C58.6497 90.754 55.5738 89.2459 52.1992 88.3425C49.2577 87.5586 46.2266 87.3496 43.1955 87.2525C41.1125 87.1779 39.0371 87.357 36.9093 87.4018ZM64.8463 112.39C66.093 112.539 66.862 111.837 67.3846 110.755C67.6011 110.299 67.7355 109.814 67.84 109.329C67.967 108.747 67.9147 108.679 67.3174 108.702C65.8541 108.761 64.458 109.105 63.1217 109.702C62.9052 109.799 62.7036 109.926 62.5169 110.068C61.9197 110.531 61.8823 111.158 62.4124 111.695C62.6812 111.964 63.0097 112.121 63.368 112.226C63.8384 112.352 64.3087 112.412 64.8463 112.39Z" fill="#303030"/>
</svg>
