<svg width="28" height="24" viewBox="0 0 28 24" fill="none" xmlns="http://www.w3.org/2000/svg">
<g filter="url(#filter0_d)">
<path d="M27.125 14.8125H26.6875V11.3125C26.6869 10.8486 26.5023 10.4038 26.1743 10.0757C25.8462 9.74768 25.4014 9.56311 24.9375 9.5625V2.125C24.9369 1.66106 24.7523 1.21629 24.4243 0.888234C24.0962 0.560177 23.6514 0.375608 23.1875 0.375H4.8125C4.34856 0.375608 3.90379 0.560177 3.57573 0.888234C3.24768 1.21629 3.06311 1.66106 3.0625 2.125V9.5625C2.59856 9.56311 2.15379 9.74768 1.82573 10.0757C1.49768 10.4038 1.31311 10.8486 1.3125 11.3125V14.8125H0.875C0.758968 14.8125 0.647688 14.8586 0.565641 14.9406C0.483594 15.0227 0.4375 15.134 0.4375 15.25V17C0.4375 17.116 0.483594 17.2273 0.565641 17.3094C0.647688 17.3914 0.758968 17.4375 0.875 17.4375H1.3125V19.1875C1.3125 19.3035 1.35859 19.4148 1.44064 19.4969C1.52269 19.5789 1.63397 19.625 1.75 19.625H3.0625C3.16361 19.625 3.26162 19.59 3.3398 19.5259C3.41798 19.4618 3.47151 19.3725 3.49125 19.2734L3.85875 17.4375H24.1413L24.5088 19.2734C24.5285 19.3725 24.582 19.4618 24.6602 19.5259C24.7384 19.59 24.8364 19.625 24.9375 19.625H26.25C26.366 19.625 26.4773 19.5789 26.5594 19.4969C26.6414 19.4148 26.6875 19.3035 26.6875 19.1875V17.4375H27.125C27.241 17.4375 27.3523 17.3914 27.4344 17.3094C27.5164 17.2273 27.5625 17.116 27.5625 17V15.25C27.5625 15.134 27.5164 15.0227 27.4344 14.9406C27.3523 14.8586 27.241 14.8125 27.125 14.8125ZM3.9375 2.125C3.9378 1.89303 4.03009 1.67065 4.19412 1.50662C4.35815 1.34259 4.58053 1.2503 4.8125 1.25H23.1875C23.4195 1.2503 23.6419 1.34259 23.8059 1.50662C23.9699 1.67065 24.0622 1.89303 24.0625 2.125V9.5625H23.1875V7.8125C23.1869 7.34856 23.0023 6.90379 22.6743 6.57573C22.3462 6.24768 21.9014 6.06311 21.4375 6.0625H16.1875C15.7236 6.06311 15.2788 6.24768 14.9507 6.57573C14.6227 6.90379 14.4381 7.34856 14.4375 7.8125V9.5625H13.5625V7.8125C13.5619 7.34856 13.3773 6.90379 13.0493 6.57573C12.7212 6.24768 12.2764 6.06311 11.8125 6.0625H6.5625C6.09856 6.06311 5.65379 6.24768 5.32573 6.57573C4.99768 6.90379 4.81311 7.34856 4.8125 7.8125V9.5625H3.9375V2.125ZM22.3125 7.8125V9.5625H15.3125V7.8125C15.3128 7.58053 15.4051 7.35815 15.5691 7.19412C15.7331 7.03009 15.9555 6.9378 16.1875 6.9375H21.4375C21.6695 6.9378 21.8919 7.03009 22.0559 7.19412C22.2199 7.35815 22.3122 7.58053 22.3125 7.8125ZM12.6875 7.8125V9.5625H5.6875V7.8125C5.6878 7.58053 5.78009 7.35815 5.94412 7.19412C6.10815 7.03009 6.33053 6.9378 6.5625 6.9375H11.8125C12.0445 6.9378 12.2669 7.03009 12.4309 7.19412C12.5949 7.35815 12.6872 7.58053 12.6875 7.8125ZM2.1875 11.3125C2.1878 11.0805 2.28009 10.8581 2.44412 10.6941C2.60815 10.5301 2.83053 10.4378 3.0625 10.4375H24.9375C25.1695 10.4378 25.3919 10.5301 25.5559 10.6941C25.7199 10.8581 25.8122 11.0805 25.8125 11.3125V14.8125H2.1875V11.3125ZM2.70375 18.75H2.1875V17.4375H2.96625L2.70375 18.75ZM25.8125 18.75H25.2962L25.0338 17.4375H25.8125V18.75ZM26.6875 16.5625H1.3125V15.6875H26.6875V16.5625Z" fill="#909090"/>
</g>
<defs>
<filter id="filter0_d" x="-3.5625" y="0.375" width="35.125" height="27.25" filterUnits="userSpaceOnUse" color-interpolation-filters="sRGB">
<feFlood flood-opacity="0" result="BackgroundImageFix"/>
<feColorMatrix in="SourceAlpha" type="matrix" values="0 0 0 0 0 0 0 0 0 0 0 0 0 0 0 0 0 0 127 0" result="hardAlpha"/>
<feOffset dy="4"/>
<feGaussianBlur stdDeviation="2"/>
<feComposite in2="hardAlpha" operator="out"/>
<feColorMatrix type="matrix" values="0 0 0 0 0 0 0 0 0 0 0 0 0 0 0 0 0 0 0.25 0"/>
<feBlend mode="normal" in2="BackgroundImageFix" result="effect1_dropShadow"/>
<feBlend mode="normal" in="SourceGraphic" in2="effect1_dropShadow" result="shape"/>
</filter>
</defs>
</svg>
