<svg width="24" height="28" viewBox="0 0 24 28" fill="none" xmlns="http://www.w3.org/2000/svg">
<g filter="url(#filter0_d)">
<path d="M17.8312 14.0549H17.7874L18.2507 4.1568C18.2613 3.9305 18.0865 3.73849 17.8602 3.72794C17.6339 3.71705 17.4419 3.89222 17.4313 4.11846L16.9663 14.0549H7.0337L6.64536 5.76007C6.50422 2.74455 6.51231 2.93973 6.51231 2.86891C6.51231 1.73934 7.43232 0.820312 8.56314 0.820312H15.4367C16.5675 0.820312 17.4875 1.73934 17.4875 2.86891C17.4875 2.93601 17.4901 2.86355 17.4313 4.11846C17.4207 4.3447 17.5955 4.53671 17.8218 4.54732C18.048 4.55831 18.2401 4.38309 18.2507 4.1568C18.3093 2.90544 18.3079 2.96144 18.3079 2.86891C18.3079 1.28696 17.0199 0 15.4367 0H8.5632C6.98005 0 5.69205 1.28696 5.69205 2.86891C5.69205 2.96603 5.68352 2.75466 5.82603 5.79841L6.21257 14.0549H6.16876C5.3998 14.0549 4.77423 14.6805 4.77423 15.4494V17.4832C4.77423 18.2521 5.3998 18.8777 6.16876 18.8777H6.451V23.3894C6.451 23.6159 6.63464 23.7996 6.86116 23.7996C7.08768 23.7996 7.27132 23.6159 7.27132 23.3894V18.8777H8.5026L7.93435 26.8713C7.92204 27.0442 7.77663 27.1797 7.60321 27.1797C7.42018 27.1797 7.27132 27.0308 7.27132 26.8478V23.3894C7.27132 23.1629 7.08768 22.9792 6.86116 22.9792C6.63464 22.9792 6.451 23.1629 6.451 23.3894V26.8478C6.451 27.4831 6.96791 28 7.60321 28C8.20505 28 8.70987 27.5297 8.75258 26.9294L9.325 18.8777H14.6752L15.2476 26.9295C15.2901 27.5297 15.795 28 16.3968 28C17.0322 28 17.549 27.4831 17.549 26.8478V18.8777H17.8312C18.6002 18.8777 19.2258 18.2521 19.2258 17.4832V15.4494C19.2258 14.6805 18.6002 14.0549 17.8312 14.0549ZM16.7287 26.8478C16.7287 27.0308 16.5798 27.1797 16.3968 27.1797C16.2234 27.1797 16.078 27.0442 16.0657 26.8713L15.4974 18.8777H16.7287V26.8478ZM18.4055 17.4832C18.4055 17.7998 18.1479 18.0574 17.8312 18.0574C16.5627 18.0574 7.42592 18.0574 6.16865 18.0574C5.85201 18.0574 5.59443 17.7998 5.59443 17.4832V15.4494C5.59443 15.1328 5.85201 14.8752 6.16865 14.8752H17.8312C18.1479 14.8752 18.4055 15.1328 18.4055 15.4494V17.4832Z" fill="#909090"/>
</g>
<defs>
<filter id="filter0_d" x="0.774231" y="0" width="22.4515" height="36" filterUnits="userSpaceOnUse" color-interpolation-filters="sRGB">
<feFlood flood-opacity="0" result="BackgroundImageFix"/>
<feColorMatrix in="SourceAlpha" type="matrix" values="0 0 0 0 0 0 0 0 0 0 0 0 0 0 0 0 0 0 127 0" result="hardAlpha"/>
<feOffset dy="4"/>
<feGaussianBlur stdDeviation="2"/>
<feComposite in2="hardAlpha" operator="out"/>
<feColorMatrix type="matrix" values="0 0 0 0 0 0 0 0 0 0 0 0 0 0 0 0 0 0 0.25 0"/>
<feBlend mode="normal" in2="BackgroundImageFix" result="effect1_dropShadow"/>
<feBlend mode="normal" in="SourceGraphic" in2="effect1_dropShadow" result="shape"/>
</filter>
</defs>
</svg>
