<svg width="16" height="20" viewBox="0 0 16 20" fill="none" xmlns="http://www.w3.org/2000/svg">
<path fill-rule="evenodd" clip-rule="evenodd" d="M0.292634 15.6855C0.0826338 15.4755 -0.0223662 15.1835 0.00363379 14.8875L0.382634 10.7175C0.424634 10.2605 0.626634 9.82952 0.952634 9.50352L9.94863 0.507519C10.6506 -0.197481 11.9236 -0.162481 12.6646 0.576519L15.4026 3.31452L15.4036 3.31552C16.1686 4.08152 16.1996 5.29952 15.4716 6.02952L6.47463 15.0265C6.14963 15.3515 5.71863 15.5535 5.26063 15.5955L1.09063 15.9745C1.06063 15.9765 1.03063 15.9775 0.999634 15.9775C0.736634 15.9775 0.481634 15.8735 0.292634 15.6855ZM12.0186 6.65652L9.32363 3.96152L11.2716 2.01252L13.9656 4.70652L12.0186 6.65652ZM5.07963 13.6025L2.10263 13.8735L2.36663 10.9175L7.98363 5.30052L10.6796 7.99752L5.07963 13.6025ZM14.9996 19.9775C15.5496 19.9775 15.9996 19.5275 15.9996 18.9775C15.9996 18.4285 15.5496 17.9775 14.9996 17.9775H0.999634C0.450634 17.9775 -0.000366211 18.4285 -0.000366211 18.9775C-0.000366211 19.5275 0.450634 19.9775 0.999634 19.9775H14.9996Z" fill="#808080"/>
</svg>
