<svg width="20" height="24" viewBox="0 0 20 24" fill="none" xmlns="http://www.w3.org/2000/svg">
<path d="M17.0002 0H3.07514C1.94104 0 0.945251 0.932972 0.945251 2.0373V22.6367C0.945251 23.0064 1.04814 23.3144 1.21395 23.5525C1.41225 23.837 1.73154 24.0001 2.07392 24C2.39762 24 2.74227 23.8559 3.06054 23.5841L9.29061 18.2944C9.48302 18.1301 9.75942 18.0359 10.0468 18.0359C10.3341 18.0359 10.6099 18.1301 10.8029 18.2949L17.0121 23.5833C17.3315 23.8559 17.6524 24.0001 17.9755 24.0001C18.522 24.0001 19.0546 23.5786 19.0546 22.6368V2.0373C19.0546 0.932972 18.1343 0 17.0002 0Z" fill="#303030"/>
</svg>
