<svg width="24" height="24" viewBox="0 0 24 24" fill="none" xmlns="http://www.w3.org/2000/svg">
<g clip-path="url(#clip0_1_101)">
<path d="M4.07392 23.25H4.07367C3.97318 23.25 3.88534 23.2041 3.82935 23.1238C3.75674 23.0195 3.69525 22.8631 3.69525 22.6367V2.0373C3.69525 1.38277 4.31875 0.75 5.07514 0.75H19.0002C19.7212 0.75 20.3046 1.34824 20.3046 2.0373V22.6368C20.3046 22.9664 20.2135 23.1135 20.1634 23.169C20.1142 23.2235 20.0521 23.2501 19.9755 23.2501C19.8883 23.2501 19.7339 23.2133 19.4991 23.0128L19.4984 23.0123L13.2899 17.7245C13.2899 17.7245 13.2898 17.7245 13.2898 17.7244C12.9425 17.4279 12.4865 17.2859 12.0468 17.2859C11.6079 17.2859 11.1513 17.4274 10.8042 17.7236C10.8039 17.7238 10.8037 17.7239 10.8035 17.7241L4.57512 23.0123L4.57341 23.0138C4.35249 23.2025 4.17425 23.25 4.07392 23.25Z" stroke="#303030" stroke-width="1.5"/>
</g>
<defs>
<clipPath id="clip0_1_101">
<rect width="24" height="24" fill="white"/>
</clipPath>
</defs>
</svg>
