<svg width="20" height="24" viewBox="0 0 20 24" fill="none" xmlns="http://www.w3.org/2000/svg">
<path d="M2.07392 23.25H2.07367C1.97318 23.25 1.88534 23.2041 1.82935 23.1238C1.75674 23.0195 1.69525 22.8631 1.69525 22.6367V2.0373C1.69525 1.38277 2.31875 0.75 3.07514 0.75H17.0002C17.7212 0.75 18.3046 1.34824 18.3046 2.0373V22.6368C18.3046 22.9664 18.2135 23.1135 18.1634 23.169C18.1142 23.2235 18.0521 23.2501 17.9755 23.2501C17.8883 23.2501 17.7339 23.2133 17.499 23.0128L17.4984 23.0123L11.2899 17.7245C11.2899 17.7245 11.2898 17.7245 11.2898 17.7244C10.9425 17.4279 10.4865 17.2859 10.0468 17.2859C9.60786 17.2859 9.15133 17.4274 8.80415 17.7236C8.80394 17.7238 8.80373 17.7239 8.80352 17.7241L2.57512 23.0123L2.57341 23.0138C2.35249 23.2025 2.17425 23.25 2.07392 23.25Z" stroke="#BDBDBD" stroke-width="1.5"/>
</svg>
