<svg width="28" height="28" viewBox="0 0 28 28" fill="none" xmlns="http://www.w3.org/2000/svg">
<g clip-path="url(#clip0)">
<path d="M11.6926 19.1138C7.30842 19.1138 3.74179 22.6804 3.74179 27.0646C3.74179 27.5812 4.16053 28 4.67716 28H18.7084C19.225 28 19.6438 27.5812 19.6435 27.0646C19.6435 22.6804 16.0768 19.1138 11.6926 19.1138ZM5.6846 26.1292C6.13577 23.2192 8.6582 20.9845 11.6929 20.9845C14.7277 20.9845 17.2501 23.2192 17.7013 26.1292H5.6846Z" fill="#606060"/>
<path d="M25.5118 2.0828C24.2194 0.790107 22.4952 0.0782471 20.6568 0.0782471C18.8188 0.0782471 17.0948 0.790107 15.8021 2.0828C13.1251 4.75989 13.1251 9.11603 15.8021 11.7931C15.9774 11.9687 16.2153 12.0672 16.4635 12.0672C16.7116 12.0672 16.9493 11.9687 17.1248 11.7929L25.5119 3.40551C25.8773 3.04031 25.8773 2.44789 25.5118 2.0828ZM16.5255 9.74674C15.2035 7.8036 15.4031 5.12744 17.1248 3.40573C18.0643 2.46659 19.3183 1.94931 20.6569 1.94931C21.6761 1.94931 22.6462 2.24894 23.4659 2.80642L16.5255 9.74674Z" fill="#606060"/>
<path d="M14.7189 0.213245C14.3541 -0.0867134 13.8243 -0.0682839 13.482 0.256283L2.50677 10.6392C2.32466 10.8116 2.21928 11.0498 2.2143 11.3008C2.20933 11.5515 2.30536 11.7938 2.4809 11.973L11.0242 20.7034L12.3615 19.3948L4.48354 11.3444L14.1683 2.18258L15.8067 3.52924L16.995 2.08409L14.7189 0.213245Z" fill="#606060"/>
</g>
<defs>
<clipPath id="clip0">
<rect width="28" height="28" fill="white"/>
</clipPath>
</defs>
</svg>
