<svg width="32" height="25" viewBox="0 0 32 25" fill="none" xmlns="http://www.w3.org/2000/svg">
<path d="M5.64779 24.1506V22.5441C5.64779 21.9283 5.27482 21.5267 4.63544 21.5267C4.31576 21.5267 3.96943 21.6338 3.72966 21.9818C3.54318 21.6873 3.27677 21.5267 2.87717 21.5267C2.61076 21.5267 2.34435 21.607 2.13123 21.9015V21.5802H1.57178V24.1506H2.13123V22.7315C2.13123 22.2764 2.37099 22.0622 2.74396 22.0622C3.11693 22.0622 3.30341 22.3031 3.30341 22.7315V24.1506H3.86287V22.7315C3.86287 22.2764 4.12927 22.0622 4.4756 22.0622C4.84857 22.0622 5.03505 22.3031 5.03505 22.7315V24.1506H5.64779ZM13.933 21.5802H13.0272V20.8038H12.4678V21.5802H11.9616V22.0889H12.4678V23.267C12.4678 23.856 12.7075 24.2041 13.3469 24.2041C13.5867 24.2041 13.8531 24.1238 14.0396 24.0167L13.8797 23.5348C13.7199 23.6419 13.5334 23.6686 13.4002 23.6686C13.1338 23.6686 13.0272 23.508 13.0272 23.2402V22.0889H13.933V21.5802ZM18.675 21.5267C18.3553 21.5267 18.1422 21.6873 18.009 21.9015V21.5802H17.4496V24.1506H18.009V22.7047C18.009 22.2764 18.1955 22.0354 18.5418 22.0354C18.6484 22.0354 18.7816 22.0622 18.8882 22.0889L19.048 21.5534C18.9414 21.5267 18.7816 21.5267 18.675 21.5267ZM11.5087 21.7944C11.2423 21.607 10.8693 21.5267 10.4697 21.5267C9.83036 21.5267 9.40411 21.848 9.40411 22.3567C9.40411 22.7851 9.72379 23.026 10.2832 23.1064L10.5497 23.1331C10.8427 23.1867 11.0025 23.267 11.0025 23.4009C11.0025 23.5883 10.7894 23.7222 10.4164 23.7222C10.0435 23.7222 9.75043 23.5883 9.56395 23.4544L9.29754 23.8828C9.59059 24.097 9.9902 24.2041 10.3898 24.2041C11.1357 24.2041 11.562 23.856 11.562 23.3741C11.562 22.9189 11.2157 22.678 10.6829 22.5976L10.4164 22.5709C10.1767 22.5441 9.9902 22.4905 9.9902 22.3299C9.9902 22.1425 10.1767 22.0354 10.4697 22.0354C10.7894 22.0354 11.1091 22.1693 11.2689 22.2496L11.5087 21.7944ZM26.3742 21.5267C26.0545 21.5267 25.8413 21.6873 25.7081 21.9015V21.5802H25.1487V24.1506H25.7081V22.7047C25.7081 22.2764 25.8946 22.0354 26.241 22.0354C26.3475 22.0354 26.4807 22.0622 26.5873 22.0889L26.7471 21.5534C26.6406 21.5267 26.4807 21.5267 26.3742 21.5267ZM19.2345 22.8654C19.2345 23.6419 19.7673 24.2041 20.5931 24.2041C20.9661 24.2041 21.2325 24.1238 21.4989 23.9096L21.2325 23.4544C21.0194 23.6151 20.8063 23.6954 20.5665 23.6954C20.1136 23.6954 19.7939 23.3741 19.7939 22.8654C19.7939 22.3835 20.1136 22.0622 20.5665 22.0354C20.8063 22.0354 21.0194 22.1157 21.2325 22.2764L21.4989 21.8212C21.2325 21.607 20.9661 21.5267 20.5931 21.5267C19.7673 21.5267 19.2345 22.0889 19.2345 22.8654ZM24.4028 22.8654V21.5802H23.8433V21.9015C23.6568 21.6605 23.3904 21.5267 23.0441 21.5267C22.3248 21.5267 21.7653 22.0889 21.7653 22.8654C21.7653 23.6419 22.3248 24.2041 23.0441 24.2041C23.417 24.2041 23.6835 24.0702 23.8433 23.8293V24.1506H24.4028V22.8654ZM22.3514 22.8654C22.3514 22.4102 22.6445 22.0354 23.124 22.0354C23.5769 22.0354 23.8966 22.3835 23.8966 22.8654C23.8966 23.3206 23.5769 23.6954 23.124 23.6954C22.6445 23.6686 22.3514 23.3206 22.3514 22.8654ZM15.6646 21.5267C14.9187 21.5267 14.3859 22.0622 14.3859 22.8654C14.3859 23.6686 14.9187 24.2041 15.6913 24.2041C16.0642 24.2041 16.4372 24.097 16.7303 23.856L16.4639 23.4544C16.2507 23.6151 15.9843 23.7222 15.7179 23.7222C15.3716 23.7222 15.0253 23.5615 14.9453 23.1064H16.8368V22.8922C16.8635 22.0622 16.3839 21.5267 15.6646 21.5267ZM15.6646 22.0086C16.011 22.0086 16.2507 22.2228 16.304 22.6244H14.972C15.0253 22.2764 15.265 22.0086 15.6646 22.0086ZM29.5444 22.8654V20.5628H28.9849V21.9015C28.7984 21.6605 28.532 21.5267 28.1857 21.5267C27.4664 21.5267 26.907 22.0889 26.907 22.8654C26.907 23.6419 27.4664 24.2041 28.1857 24.2041C28.5587 24.2041 28.8251 24.0702 28.9849 23.8293V24.1506H29.5444V22.8654ZM27.4931 22.8654C27.4931 22.4102 27.7861 22.0354 28.2656 22.0354C28.7185 22.0354 29.0382 22.3835 29.0382 22.8654C29.0382 23.3206 28.7185 23.6954 28.2656 23.6954C27.7861 23.6686 27.4931 23.3206 27.4931 22.8654ZM8.79137 22.8654V21.5802H8.23192V21.9015C8.04544 21.6605 7.77903 21.5267 7.4327 21.5267C6.71341 21.5267 6.15396 22.0889 6.15396 22.8654C6.15396 23.6419 6.71341 24.2041 7.4327 24.2041C7.80567 24.2041 8.07208 24.0702 8.23192 23.8293V24.1506H8.79137V22.8654ZM6.71341 22.8654C6.71341 22.4102 7.00645 22.0354 7.48599 22.0354C7.93888 22.0354 8.25856 22.3835 8.25856 22.8654C8.25856 23.3206 7.93888 23.6954 7.48599 23.6954C7.00645 23.6686 6.71341 23.3206 6.71341 22.8654Z" fill="white"/>
<path d="M19.714 2.06174H11.3222V17.2161H19.714V2.06174Z" fill="#FF5F00"/>
<path d="M11.8551 9.63879C11.8551 6.55973 13.2936 3.82873 15.5048 2.06162C13.8797 0.776444 11.8284 -1.52588e-05 9.59061 -1.52588e-05C4.28913 -1.52588e-05 0 4.31067 0 9.63879C0 14.9669 4.28913 19.2776 9.59061 19.2776C11.8284 19.2776 13.8797 18.5011 15.5048 17.216C13.2936 15.4756 11.8551 12.7178 11.8551 9.63879Z" fill="#EB001B"/>
<path d="M31.0363 9.63877C31.0363 14.9669 26.7472 19.2776 21.4457 19.2776C19.2079 19.2776 17.1566 18.5011 15.5315 17.2159C17.7693 15.4488 19.1813 12.7178 19.1813 9.63877C19.1813 6.55971 17.7427 3.82872 15.5315 2.0616C17.1566 0.776429 19.2079 -3.05176e-05 21.4457 -3.05176e-05C26.7472 -3.05176e-05 31.0363 4.33743 31.0363 9.63877Z" fill="#F79E1B"/>
</svg>
