<svg width="18" height="18" viewBox="0 0 18 18" fill="none" xmlns="http://www.w3.org/2000/svg">
<path fill-rule="evenodd" clip-rule="evenodd" d="M16.5 18C16.5 18 18 18 18 16.5C18 15 16.5 10.5 9 10.5C1.5 10.5 0 15 0 16.5C0 18 1.5 18 1.5 18H16.5ZM1.5075 16.584V16.581V16.584ZM1.533 16.5H16.467C16.474 16.4992 16.481 16.4982 16.488 16.497L16.5 16.494C16.4985 16.125 16.269 15.015 15.252 13.998C14.274 13.02 12.4335 12 9 12C5.565 12 3.726 13.02 2.748 13.998C1.731 15.015 1.503 16.125 1.5 16.494C1.51098 16.4961 1.52198 16.4981 1.533 16.5ZM16.494 16.584V16.581V16.584ZM9 7.5C9.79565 7.5 10.5587 7.18393 11.1213 6.62132C11.6839 6.05871 12 5.29565 12 4.5C12 3.70435 11.6839 2.94129 11.1213 2.37868C10.5587 1.81607 9.79565 1.5 9 1.5C8.20435 1.5 7.44129 1.81607 6.87868 2.37868C6.31607 2.94129 6 3.70435 6 4.5C6 5.29565 6.31607 6.05871 6.87868 6.62132C7.44129 7.18393 8.20435 7.5 9 7.5ZM13.5 4.5C13.5 5.69347 13.0259 6.83807 12.182 7.68198C11.3381 8.52589 10.1935 9 9 9C7.80653 9 6.66193 8.52589 5.81802 7.68198C4.97411 6.83807 4.5 5.69347 4.5 4.5C4.5 3.30653 4.97411 2.16193 5.81802 1.31802C6.66193 0.474106 7.80653 0 9 0C10.1935 0 11.3381 0.474106 12.182 1.31802C13.0259 2.16193 13.5 3.30653 13.5 4.5Z" fill="#BDBDBD"/>
</svg>
