<svg width="20" height="20" viewBox="0 0 20 20" fill="none" xmlns="http://www.w3.org/2000/svg">
<path d="M17.9687 16.3106L16.6667 4.06063C16.6667 3.29047 16.07 2.66669 15.3333 2.66669H10H4.66667C3.93 2.66669 3.33333 3.29047 3.33333 4.06063L2.03133 16.3106C2.012 16.406 2 16.5043 2 16.6061C2 17.3762 2.59667 18 3.33333 18H10H16.6667C17.4033 18 18 17.3762 18 16.6061C18 16.5043 17.988 16.406 17.9687 16.3106ZM13.3333 6.08741V6.84851C13.3333 8.77005 11.838 10.3334 10 10.3334C8.162 10.3334 6.66667 8.77005 6.66667 6.84851V6.08741C6.27933 5.94384 6 5.5605 6 5.10608C6 4.52899 6.448 4.06063 7 4.06063C7.552 4.06063 8 4.52899 8 5.10608V6.84851C8 8.00129 8.89733 8.93941 10 8.93941C11.1027 8.93941 12 8.00129 12 6.84851V5.10608C12 4.52899 12.448 4.06063 13 4.06063C13.552 4.06063 14 4.52899 14 5.10608C14 5.5605 13.7207 5.94384 13.3333 6.08741Z" fill="#303030"/>
</svg>
