<svg width="16" height="16" viewBox="0 0 16 16" fill="none" xmlns="http://www.w3.org/2000/svg">
<path d="M15.9687 14.3105L14.6667 2.0606C14.6667 1.29044 14.07 0.666656 13.3333 0.666656H8H2.66667C1.93 0.666656 1.33333 1.29044 1.33333 2.0606L0.0313333 14.3105C0.012 14.406 0 14.5043 0 14.606C0 15.3762 0.596667 16 1.33333 16H8H14.6667C15.4033 16 16 15.3762 16 14.606C16 14.5043 15.988 14.406 15.9687 14.3105ZM11.3333 4.08738V4.84847C11.3333 6.77002 9.838 8.33332 8 8.33332C6.162 8.33332 4.66667 6.77002 4.66667 4.84847V4.08738C4.27933 3.94381 4 3.56047 4 3.10605C4 2.52896 4.448 2.0606 5 2.0606C5.552 2.0606 6 2.52896 6 3.10605V4.84847C6 6.00126 6.89733 6.93938 8 6.93938C9.10267 6.93938 10 6.00126 10 4.84847V3.10605C10 2.52896 10.448 2.0606 11 2.0606C11.552 2.0606 12 2.52896 12 3.10605C12 3.56047 11.7207 3.94381 11.3333 4.08738Z" fill="white"/>
</svg>
