<svg width="20" height="20" viewBox="0 0 20 20" fill="none" xmlns="http://www.w3.org/2000/svg">
<g clip-path="url(#clip0)">
<path d="M19.9825 7.72477C19.9402 7.59518 19.8282 7.50067 19.6932 7.48098L13.2171 6.53982L10.3209 0.671592C10.2608 0.549159 10.1362 0.471832 10.0002 0.471832C9.86414 0.471832 9.7392 0.549159 9.67941 0.671592L6.78289 6.54017L0.306798 7.48134C0.171835 7.50103 0.0601409 7.59518 0.0175397 7.72513C-0.0243455 7.85437 0.0103799 7.99685 0.108112 8.09172L4.7946 12.6597L3.68804 19.11C3.66513 19.2443 3.72026 19.38 3.83017 19.4601C3.94079 19.5411 4.0872 19.5514 4.20713 19.4874L10.0002 16.4423L15.7925 19.4874C15.8448 19.5149 15.9024 19.5285 15.9593 19.5285C16.0334 19.5285 16.1072 19.5056 16.1698 19.4601C16.2801 19.38 16.3352 19.2443 16.312 19.11L15.2058 12.6601L19.8922 8.09172C19.9896 7.99613 20.0247 7.85401 19.9825 7.72477Z" fill="#F2C94C"/>
</g>
<defs>
<clipPath id="clip0">
<rect width="20" height="20" fill="white"/>
</clipPath>
</defs>
</svg>
