<svg width="28" height="22" viewBox="0 0 28 22" fill="none" xmlns="http://www.w3.org/2000/svg">
<path d="M27.5625 0.9375H0.4375C0.195891 0.9375 0 1.13339 0 1.375V4C0 4.24161 0.195891 4.4375 0.4375 4.4375H1.75V20.625C1.75 20.8666 1.94589 21.0625 2.1875 21.0625H3.9375C4.17911 21.0625 4.375 20.8666 4.375 20.625V4.4375H23.625V20.625C23.625 20.8666 23.8209 21.0625 24.0625 21.0625H25.8125C26.0541 21.0625 26.25 20.8666 26.25 20.625V4.4375H27.5625C27.8041 4.4375 28 4.24161 28 4V1.375C28 1.13339 27.8041 0.9375 27.5625 0.9375ZM27.125 3.5625H25.8125C25.5709 3.5625 25.375 3.75839 25.375 4V20.1875H24.5V4C24.5 3.75839 24.3041 3.5625 24.0625 3.5625H3.9375C3.69589 3.5625 3.5 3.75839 3.5 4V20.1875H2.625V4C2.625 3.75839 2.42911 3.5625 2.1875 3.5625H0.875V1.8125H27.125V3.5625Z" fill="#909090"/>
</svg>
