<svg width="50" height="16" viewBox="0 0 50 16" fill="none" xmlns="http://www.w3.org/2000/svg">
<path d="M18.9835 0.283011L12.4375 15.758H8.16697L4.94555 3.40788C4.74988 2.64754 4.58035 2.36845 3.98572 2.04872C3.01458 1.52593 1.41081 1.03606 0 0.731784L0.095162 0.283011H6.97032C7.4198 0.282269 7.85472 0.440912 8.19642 0.730252C8.53812 1.01959 8.76406 1.42053 8.83338 1.86057L10.5348 10.8157L14.7398 0.283011H18.9835ZM35.7175 10.7052C35.7356 6.62142 30.018 6.39587 30.0573 4.57114C30.07 4.01634 30.6033 3.42635 31.7711 3.27515C33.1374 3.14654 34.5135 3.38566 35.7542 3.96728L36.4642 0.686186C35.2554 0.236507 33.9753 0.00413705 32.6841 0C28.691 0 25.8799 2.1037 25.8574 5.11522C25.8308 7.34401 27.8634 8.58601 29.395 9.32709C30.9683 10.0854 31.4962 10.5719 31.4903 11.25C31.4785 12.2889 30.2348 12.7467 29.0719 12.7647C27.0408 12.796 25.8617 12.2207 24.9225 11.7869L24.1909 15.1781C25.134 15.6072 26.8767 15.9817 28.6838 16C32.9285 16 35.7044 13.9233 35.7175 10.7052ZM46.2633 15.758H50L46.7382 0.283011H43.2897C42.9213 0.279681 42.5604 0.3861 42.2537 0.588472C41.947 0.790843 41.7088 1.07983 41.5699 1.41797L35.5075 15.758H39.749L40.592 13.4461H45.775L46.2633 15.758ZM41.7548 10.2749L43.8818 4.46442L45.1061 10.2749H41.7548ZM24.7566 0.283011L21.4158 15.758H17.375L20.7172 0.283011H24.7566Z" fill="white"/>
</svg>
